<svg xmlns="http://www.w3.org/2000/svg" version="1.1" xmlns:xlink="http://www.w3.org/1999/xlink" width="1000" height="1000"><metadata><rdf:RDF xmlns:rdf="http://www.w3.org/1999/02/22-rdf-syntax-ns#" xmlns:dc="http://purl.org/dc/elements/1.1/"><rdf:Description><dc:creator>RealFaviconGenerator</dc:creator><dc:source>https://realfavicongenerator.net</dc:source></rdf:Description></rdf:RDF></metadata><g clip-path="url(#SvgjsClipPath1172)"><rect width="1000" height="1000" fill="#ffffff"></rect><g transform="matrix(1.499999250000375,0,0,1.499999250000375,0,0)"><svg xmlns="http://www.w3.org/2000/svg" version="1" width="666.667" height="666.667" viewBox="0 0 500 500"><path d="M241.8 11c-8.2 4.5-12.4 13.6-10.1 22.3 1.2 4.5 3.5 2.8-25.2 19.4-10.4 6.1-25.5 14.8-33.5 19.5s-16.3 9.6-18.5 10.8-11.4 6.6-20.5 11.9c-20.2 12-49.3 29.1-53.7 31.7l-3.3 1.8-2.7-2.6c-10.8-10.4-28.6-5.7-32.4 8.5-2.8 10.6 3.1 20.7 13.9 23.6l4.2 1.2v181.8l-4 1.1c-4.6 1.2-10.4 5.9-12.6 10.3-2 3.7-2 13.7 0 17.4 3.1 6 10.3 10.3 17.3 10.3 4.6 0 11.2-2.9 14.2-6.1l2.2-2.4 7.1 3.8c3.8 2.1 12.5 7.1 19.2 11.1 6.6 4 17.7 10.5 24.6 14.6 6.9 4 15.7 9.2 19.5 11.5 3.9 2.3 14.7 8.7 24 14.2 9.4 5.5 25.1 14.8 35 20.6 9.9 5.9 19.8 11.7 22.1 13.1l4.1 2.4-.5 7.4c-.5 9.1 1.7 14.4 7.9 18.5 5.6 3.7 14.7 3.9 20.2.4 6-3.7 9.1-9.4 8.9-16.6 0-3.3-.2-6.8-.4-7.8-.2-1.4 2.6-3.6 12.2-9.1 6.9-4 17.2-10.1 23-13.6 22.1-13.1 42.2-25.1 61-36.2 10.7-6.3 28.3-16.7 39-23.1l19.5-11.5 3.7 3.3c7.1 6.4 17 7 24.5 1.6 5.1-3.7 7.3-8.4 7.3-15.6 0-9.3-5.2-16.1-14.4-18.6l-3.6-1V159.1l3.8-1.1c10.8-2.9 16.4-12.2 14.1-23.2-2.5-11.7-15.5-18-26.4-12.9-2.2 1-5 2.8-6.2 4-1.2 1.1-2.4 2.1-2.7 2.1s-6.7-3.7-14.3-8.2-17.8-10.5-22.8-13.3c-4.9-2.9-13-7.6-18-10.5-4.9-2.9-18.4-10.8-30-17.5-11.5-6.7-27.3-15.9-35-20.4-7.7-4.6-18.9-11.1-24.8-14.4-10.7-6.1-10.8-6.2-10-9.2 1.3-5.1.7-12.1-1.3-15.6-5-8.5-17.4-12.3-25.6-7.9m-6.1 30.2c1.3 1.2 2.3 2.5 2.3 2.9 0 .7-2.2 4.4-14.9 24.6-4.1 6.5-10.2 16.3-13.6 21.8s-8.4 13.4-11.1 17.6-7.4 11.6-10.4 16.6l-5.5 9-12.5.7c-6.9.3-24.6 1.1-39.5 1.6-14.8.5-32.3 1.2-38.7 1.6l-11.7.6L79 134c-.6-2.3-1-4.3-.8-4.5.2-.1 4.1-2.4 8.8-5 4.7-2.7 11.7-6.7 15.5-9 3.9-2.3 18-10.6 31.5-18.5 25.5-14.9 43.4-25.4 78-45.8 11.3-6.7 20.7-12.1 20.9-12.2.3 0 1.5 1 2.8 2.2m43.4 4.5c24.2 14.1 35 20.4 50.4 29.4 8.8 5.1 24.6 14.3 35 20.4 10.5 6.2 26 15.3 34.5 20.3s17.4 10.2 19.7 11.6c4.1 2.4 4.1 2.5 3.1 6-1.1 3.6-1.2 3.6-5.7 3.1-2.5-.2-10.2-.9-17.1-1.5s-17.4-1.5-23.5-2c-6-.6-13.9-1.3-17.5-1.6-11.4-.9-13-1.4-13-3.8-.1-3.7-3.7-10.2-7.1-12.9-5.5-4.2-11.4-5.2-17.9-3l-5.5 1.8-18-24.5c-9.9-13.5-19.8-26.8-22-29.7-5.5-7.2-10.9-14.6-11.3-15.4s2.9-4.9 3.9-4.9c.3 0 5.8 3 12 6.7m-33.3 1.2 4.2 1.2-.2 41.7-.3 41.7-6.5.2c-3.6.1-17.9.7-31.9 1.3-13.9.6-25.5.9-25.8.7-.5-.6 2.2-5.1 19.2-32.2 7.6-12.1 18.3-29.2 23.8-38 11-17.8 11.7-18.6 12.6-18.1.3.2 2.5.9 4.9 1.5m30.8 18.2c8.2 11.1 19.1 25.8 24.2 32.7 13.6 18.3 12.7 16.3 9.8 20.7-1.4 2-2.8 5.2-3.2 7.1-.8 4.2-.1 4.1-31.6 4.9l-24.8.6V48.2l4.3-1.5c2.3-.8 4.7-1.5 5.3-1.6.6 0 7.8 8.9 16 20m31.2 70.1c2.6 9.4 13.2 15.6 22.4 13l3.5-.9 10.1 20.3c5.6 11.2 10.2 20.5 10.2 20.8 0 .4-24.7 15.3-33.5 20.1-2.7 1.6-12 6.9-20.5 12s-19.3 11.5-24 14.2l-8.5 5-3.8-3.3c-2-1.9-5.7-4-8.2-4.6l-4.5-1.2V133l5.3-.1c2.8-.1 11.5-.5 19.2-.8 7.7-.4 17.8-.8 22.5-.9l8.6-.2zm56.3-1.7c31.3 2.8 38.4 3.5 46.5 4.1 4.5.3 8.6.9 9.1 1.3.7.5 3.5 9.4 3 9.7-3.7 2.4-30.7 18.4-31 18.4s-8 4.5-17.3 10-17.4 9.9-18.1 9.8c-.6-.2-5.6-9.3-11-20.3l-9.8-20 4.2-4.2c2.2-2.3 4.4-5.6 4.8-7.2.4-1.7 1.2-3.1 1.9-3.1s8.6.7 17.7 1.5M250 181.8v48.8l-4.5 1.2c-2.5.6-6.2 2.7-8.2 4.6l-3.8 3.3-8-4.7c-31-18.3-48.9-28.8-61.5-36-8-4.6-14.6-8.5-14.8-8.6-.1-.1 3.4-5.9 7.9-13s8.8-14 9.6-15.4c.7-1.4 4.6-7.7 8.6-14 5-7.9 8.1-11.7 9.8-12.2 2-.6 27.2-1.7 58.7-2.6l6.2-.2zm-69.7-44.6c-1.4 1.8-6.2 9.4-19.2 30.3-6.1 9.9-11.8 18.8-12.5 19.8-1.6 2 0 2.7-17.1-7.3-4.9-2.9-13-7.6-18-10.5-8.2-4.7-34.8-20.5-35.2-20.8-.1-.1.3-2.3.9-4.8l1.1-4.6 23.1-.8c12.7-.4 31.4-1.1 41.6-1.5 32.4-1.2 36.4-1.1 35.3.2M79.5 151.4c1.9 1.3 30.2 17.9 55 32.3 6.1 3.5 11.1 6.8 11.3 7.3s-3.9 7.6-9 15.7c-5.2 8.1-11 17.4-12.9 20.6-3 5.1-3.7 5.6-5.9 5-1.4-.4-5.2-.7-8.4-.8-6.6-.1-6 .5-10.7-10-3.1-6.9-11.5-25.7-23-51.3l-6-13.3 3.3-3.3c4-4 3.9-3.9 6.3-2.2m347.9 2.1 3.7 3.5-6.9 14.2c-3.9 7.9-12.6 25.8-19.4 39.8s-13.8 28.4-15.5 32l-3.1 6.5-14.7-29.9c-8-16.4-14.3-30.2-13.8-30.6.4-.4 8.5-5.2 17.8-10.7 9.4-5.5 24-14.1 32.5-19.1 8.5-5.1 15.5-9.2 15.6-9.2s1.8 1.6 3.8 3.5m-350.6 23c4.4 9.9 11.9 26.5 16.6 36.8 4.7 10.4 8.6 19.2 8.6 19.5-.1.4-1.5 1.6-3.2 2.7-3.7 2.3-6.8 7.9-7.5 13.4-.7 5.3 3.3 14.2 7.6 16.7 1.7 1 3.1 2.1 3.1 2.5s-2.9 6.9-6.4 14.5C89 297 86.8 302 79.5 318c-12 26.4-11.1 24.9-14.2 24.1l-2.8-.7V158.6l2.5-.7c1.4-.3 2.8-.3 3.1 0 .4.3 4.3 8.7 8.7 18.6M439 250.1c0 71.9-.3 91.1-1.2 91.4-4.9 1.6-4.2 2.7-27.9-44.7l-22.8-45.7 4.3-8.8c8.9-18.3 21.7-44.5 31.4-64.5l10.1-20.7 3 1 3.1 1.1zm-75.2-42.4c4.9 9.8 11.7 23.7 15.1 30.8l6.2 13.1-14.5 29.8-14.5 29.8-2.8-1.9c-1.5-1.1-9.3-5.7-17.3-10.3-17.5-10-37.8-21.9-54.9-32-11.5-6.8-12.6-7.7-12.1-10 .7-3.8.6-10.2-.2-13.1-.8-2.6-.3-3 10-8.9 5.9-3.4 18.1-10.6 27.2-16 9.1-5.3 23.3-13.6 31.5-18.5 8.3-4.8 15.4-9.1 16-9.6.5-.5 1-.9 1.2-.9s4.3 8 9.1 17.7m-200.1-7c8.2 4.7 20.7 12.1 27.8 16.3 7.2 4.2 19.4 11.4 27.3 15.9 13.7 8 14.2 8.3 13.5 10.9-.9 3-1 9.4-.3 13.1.6 2.9 1.7 2.2-50.5 32.5-18.7 10.9-34.1 19.3-34.3 18.8-.1-.5-3.1-5.4-6.6-10.8-3.4-5.5-9.1-14.5-12.5-20.2l-6.4-10.3 2.1-2.2c2.5-2.8 4.8-7.3 5.6-11.4 1.1-4.9-.3-10.1-4.1-14.9l-3.3-4.5 3.3-5.7c1.9-3.1 7.5-12.2 12.6-20.1 5-8 9.1-14.8 9.1-15.3 0-1.7 2.3-.6 16.7 7.9M409 298.8l22 44.3-3.7 3.6c-3.1 2.9-4.1 3.3-5.6 2.4-1-.7-11.3-6.7-23-13.5-25.5-14.8-38.9-22.7-40-23.6-.4-.3 5.3-13.1 12.8-28.4 7.4-15.2 13.5-28.2 13.5-28.7 0-3.6 4.3 4.3 24 43.9m-163.5-29.7 4.5 1.1v100.1l-11.7-.7c-6.5-.3-19.7-1.1-29.3-1.6-28-1.6-24.1.2-34.1-15.8-22.7-36.3-25.9-41.5-25.5-41.9.6-.6 30.7-18.3 31.1-18.3.2 0 8.3-4.7 17.9-10.5s17.7-10.5 17.9-10.5 4.1-2.2 8.7-5l8.4-4.9 3.8 3.4c2.1 2 5.7 4 8.3 4.6m30.7-2.7c4.3 2.5 7.9 4.6 8.2 4.6.2 0 8.3 4.7 18.1 10.5 9.7 5.8 17.9 10.5 18.1 10.5s4.8 2.6 10.2 5.9c5.3 3.2 13 7.7 17 10 3.9 2.3 7.2 4.5 7.2 4.9s-4.8 10.5-10.7 22.5l-10.8 21.9-3.8-.6c-9.1-1.5-17.8 3.8-21.2 12.9-1.8 4.5-1.9 4.6-5.4 4.1-2-.3-13.5-1-25.6-1.6s-23-1.3-24.2-1.6l-2.3-.4v-99.8l4.3-1c2.3-.6 6.1-2.7 8.2-4.6 2.2-1.8 4.2-3.3 4.5-3.1.3.1 4 2.3 8.2 4.9M124 273.7c1.9 3.2 7.6 12.4 12.7 20.5s9.3 15.1 9.3 15.5c0 .5-1.9 1.8-4.2 3-2.4 1.1-9.9 5.4-16.8 9.5s-14.5 8.6-17 10c-11.2 6.3-24.7 14.3-27.2 16l-2.8 1.9-4-3.3c-4.6-3.8-4.7-2.9 2.5-18.1 2.9-6.2 6.6-14.4 8.3-18.2 1.6-3.9 4.6-10.4 6.5-14.5s5.6-11.9 8.1-17.3l4.5-9.9 3.8.6c2.1.3 5.4.2 7.3-.3s4-.9 4.5-1c.6-.1 2.6 2.5 4.5 5.6m27.8 44.7c2.3 3.5 7.8 12.4 12.3 19.8 4.5 7.3 10.2 16.3 12.5 20 2.4 3.7 4.4 7 4.4 7.4s-4.8.4-10.7 0c-19-1.2-42.3-2.5-60.8-3.6-28.6-1.6-29.2-1.7-29.7-4.8-.3-1.5-.7-3.3-.9-4.1-.4-1.5 5-5 32.6-21.1 8.3-4.8 19.3-11.2 24.5-14.3s10-5.6 10.6-5.7c.6 0 2.9 2.9 5.2 6.4M390 332.5c24.3 13.9 32.5 19.2 32.1 20.6-.2.8-.6 3.1-.8 5.1-.3 2.1-1.1 3.8-1.7 3.8s-16.6 2.3-35.5 5c-19 2.8-35.4 5-36.6 5-1.5 0-2.6-1.1-3.9-3.9-.9-2.2-3.2-5.3-5.1-7l-3.4-3 10.9-22.5 11-22.5 10.3 6.1c5.6 3.4 15.8 9.4 22.7 13.3M114 364c9.1.5 24.6 1.4 34.5 2 9.9.5 21.7 1.3 26.2 1.6l8.1.7 9.2 14.6c5.1 8 12.1 19.1 15.5 24.6s9 14.5 12.5 20c5.6 8.9 12.6 20.1 17.1 27.5 1.5 2.3 1.4 2.7-.6 4.7l-2.2 2.3-20.4-12.1c-11.2-6.7-28-16.7-37.4-22.3-9.3-5.5-17.4-10.3-18-10.5-.5-.2-4.8-2.7-9.5-5.6s-13-7.8-18.5-11-15.8-9.3-23-13.6c-7.1-4.2-16.6-9.8-21.1-12.4l-8.1-4.7 1.1-4 1.1-4.1 8.5.7c4.7.3 15.9 1 25 1.6m307.9 2.7c1.3 2.9 1.6 2.6-5.9 7-5.7 3.3-30.1 17.8-54 32-10.2 6-26.1 15.5-35.5 21-26.9 15.8-30.2 17.8-45 26.7-14 8.3-14 8.3-16.1 6.4l-2.2-1.9 8.9-11.7c18.3-24.3 35.5-46.9 38.7-50.8l3.3-4.2 3.9 1.9c11.4 5.5 24.2-1 27.1-13.9.7-2.9 1.7-5.2 2.3-5.2.6-.1 16-2.3 34.1-4.9 18.2-2.7 34.4-5 36.1-5 2.4-.1 3.3.5 4.3 2.6M215.5 370c9.4.5 20.9 1.3 25.8 1.6l8.7.7-.2 40.5-.3 40.6-3.5.8c-1.9.5-4.1 1-4.9 1.1-.9.1-4.6-4.8-9.3-12.3-8.4-13.4-16.6-26.4-33.8-53.6-15.3-24.2-14.5-21.7-6.3-21 3.7.3 14.5 1.1 23.8 1.6m67.5 4c9.1.6 18.1 1 20.1 1 3.5 0 3.7.2 4.4 3.7.3 2.1 1.5 5.3 2.6 7.1 2.5 4.4 2.4 5.1-1.3 9.7-3.9 4.7-27.8 35.7-39.1 50.7-7.3 9.8-8.2 10.6-10.1 9.6-1.2-.6-3.4-1.4-5.1-1.8l-3-.6-.3-40.8-.2-40.8 7.7.6c4.3.4 15.2 1.1 24.3 1.6"></path></svg></g></g><defs><clipPath id="SvgjsClipPath1172"><rect width="1000" height="1000" x="0" y="0" rx="500" ry="500"></rect></clipPath></defs></svg>