<svg xmlns="http://www.w3.org/2000/svg" xml:space="preserve" style="fill-rule:evenodd;clip-rule:evenodd;stroke-linecap:round;stroke-linejoin:round;stroke-miterlimit:1.5" viewBox="0 0 299 93">
  <path d="M0 0h298.875v92.746H0z" style="fill:none"/>
  <clipPath id="a"><path d="M0 0h298.875v92.746H0z"/></clipPath>
  <g clip-path="url(#a)" fill="white">
    <path d="M47.812 91.25V18.625L28.85 1.516.562 1.5v17.125h28.25V91.25z" style="fill-rule:nonzero"/>
    <circle cx="72.687" cy="3.704" r="3.5"/>
    <path d="M41.317 3.704h31.37" style="fill:none;stroke:white;stroke-width:1.67px"/>
    <circle cx="41.317" cy="3.704" r="3.5"/>
    <circle cx="123.66" cy="54.963" r="3.5"/>
    <circle cx="123.66" cy="27" r="3.5"/>
    <path d="M123.66 54.963V27" style="fill:none;stroke:white;stroke-width:1.67px"/>
    <path d="M108.562 63.125c0 9-6 14-12.25 14-7 0-11.625-4.125-11.625-13.5V24.5H67.312V67c0 17.375 9.75 25.5 23.125 25.5 8.5 0 15.875-4.125 19.5-10v8.75h15.875V66.12l-17.25-15.642z" style="fill-rule:nonzero"/>
    <path d="m193.06 36.636-5.247-8.136-16.75 62.75h-19.25l-23-89.75h18.5l14.5 60.875 16.5-60.875h19.375l12.214 43.792zm23.902 12.305L228.313 1.5h18.625l-14.307 55.474z"/>
    <circle cx="214.235" cy="89" r="3.5"/>
    <path d="M196.558 45.296 214.234 89l6.101-31.659" style="fill:none;stroke:white;stroke-width:1.67px"/>
    <circle cx="220.336" cy="57.341" r="3.5"/>
    <circle cx="196.558" cy="45.296" r="3.5"/>
    <path d="M258.455 72.009c.291 5.253 4.23 8.491 10.483 8.491 8.875 0 14.25-4.875 14.25-12.625v-19.25c0-7.5-4.25-11.875-11.5-11.875-7.304 0-11.763 4.735-12.568 11.879l-15.682-.004c1-15.375 12.125-25.375 28.25-25.375 17.5 0 27.75 9.625 27.75 26v42h-14.125V83c-4.375 6.25-11 9.5-20.125 9.5-13.875 0-23.125-8.125-23.125-20.625 0-2.834.467-5.351 1.411-7.565z"/>
    <circle cx="255.003" cy="63.339" r="3.5"/>
    <circle cx="278.215" cy="55.901" r="3.5"/>
    <path d="m255.003 63.339 23.212-7.438" style="fill:none;stroke:white;stroke-width:1.67px"/>
  </g>
</svg>
