<svg xmlns="http://www.w3.org/2000/svg" xml:space="preserve" style="fill-rule:evenodd;clip-rule:evenodd;stroke-linecap:round;stroke-linejoin:round;stroke-miterlimit:1.5" viewBox="0 0 215 91"><g transform="matrix(1.00076 0 0 .99945 -87.053 -4.997)"><path d="M86.987 5h213.888v90.125H86.987z" style="fill:none"/><clipPath id="a"><path d="M86.987 5h213.888v90.125H86.987z"/></clipPath><g clip-path="url(#a)"><path d="m128.12 21.055-.077-16.009h23.06v16.009zm0 0v73.04h-17.985v-73zM150.104 63.078v3.002c0 5.168.292 8.754 1.999 11.006 1.706 2.25 4.746 4.002 7.994 4.002 3.414 0 6.62-1.418 8.993-4.002 2.373-2.586 2.997-6.004 2.997-11.006V27.058h16.988v67.037h-15.988V82.126c-1.235 3.094-2.76 5.875-4.996 7.967-3.79 3.543-8.994 5.002-14.99 5.002-6.244 0-11.323-1.793-14.988-6.003-3.664-4.211-4.996-10.005-4.996-18.01v-8.004s16.894.005 16.987 0"/><circle cx="140.342" cy="60.136" r="2.03" transform="matrix(.98425 0 0 .98554 3.5 -1.097)"/><circle cx="140.342" cy="60.136" r="2.03" transform="matrix(.98425 0 0 .98554 3.44 -30.237)"/><circle cx="140.342" cy="60.136" r="2.03" transform="matrix(.98425 0 0 .98554 132.006 2.936)"/><path d="M273.125 62.125h8.761" style="fill:none;stroke:#000;stroke-width:.83px" transform="matrix(.99924 0 0 1.00055 -2.78 .043)"/><circle cx="140.342" cy="60.136" r="2.03" transform="matrix(.98425 0 0 .98554 140.76 2.936)"/><path d="M265.04 68.439c-1.222.513-1.707.951-2.396 1.643q-1.874 1.874-1.874 5.378 0 3.251 2.123 5.127 2.124 1.877 6.246 1.877 4.745 0 7.994-1.69 3.247-1.688 4.996-5.002t1.748-7.816v-16.01q0-6.377-2.56-9.754-2.56-3.378-8.306-3.377-4.996 0-7.744 2.501t-3.623 6.629l-17.486-1q1.873-9.882 9.43-15.822t19.173-5.94q14.49 0 21.297 7.315 6.806 7.317 6.807 20.45v23.637c0 1.667-.136 17.378-.136 17.378h-13.905L287 79.212q-.625 4.502-3.372 8.191-2.749 3.69-7.37 5.753-4.62 2.064-10.617 2.064-6.12 0-11.241-2.25-5.122-2.253-8.056-6.504-2.936-4.254-2.936-10.13 0-8.506 5.434-13.258 5.434-4.753 14.926-6.754l1.322-.233z"/><circle cx="140.342" cy="60.136" r="2.03" transform="matrix(.98425 0 0 .98554 98.952 -9.218)"/><circle cx="140.342" cy="60.136" r="2.03" transform="matrix(.98425 0 0 .98554 106.892 -52.22)"/><circle cx="140.342" cy="60.136" r="2.03" transform="matrix(.98425 0 0 .98554 61.158 -3.204)"/><circle cx="140.342" cy="60.136" r="2.03" transform="matrix(.98425 0 0 .98554 53.74 -46.13)"/><path d="m206.853 31.311 6.073-51.094h9.562l6.073 51.094.249-11.094h13.211l-2.745 38.869h-16.044l-5.525-44.759-5.525 44.759h-16.044l-2.752-33.869h13.212z" style="fill-opacity:.9" transform="matrix(.99924 0 0 1.00055 .613 34.845)"/><path d="M237.045 49.978 244.992 7M199.223 55.989l-7.424-42.902" style="fill:none;stroke:#000;stroke-width:.83px" transform="matrix(.99924 0 0 1.00055 .218 .043)"/><circle cx="140.342" cy="60.136" r="2.03" transform="matrix(.98425 0 0 .98554 -15.005 -46.24)"/><circle cx="140.342" cy="60.136" r="2.03" transform="matrix(.98425 0 0 .98554 -48.995 -46.216)"/><path d="m88.987 12.977 16.139.023" style="fill:none;stroke:#000;stroke-width:.51px" transform="matrix(2.1059 0 0 1.00055 -98.26 .043)"/><path d="M141.491 58.095V29.001" style="fill:none;stroke:#000;stroke-width:.83px" transform="matrix(.99924 0 0 1.00055 .218 .043)"/></g></g></svg>